<svg width="35" height="25" viewBox="0 0 35 25" fill="none" xmlns="http://www.w3.org/2000/svg">
<g id="logos:youtube-icon" clip-path="url(#clip0_388_3020)">
<path id="Vector" d="M33.3795 4.55876C33.1837 3.83524 32.8018 3.17562 32.2718 2.6456C31.7418 2.11558 31.0822 1.73364 30.3587 1.53783C27.7099 0.81543 17.0494 0.81543 17.0494 0.81543C17.0494 0.81543 6.38829 0.837296 3.73949 1.5597C3.01596 1.75552 2.35635 2.13748 1.82635 2.66752C1.29635 3.19757 0.914455 3.85721 0.718692 4.58076C-0.0825077 9.28716 -0.393308 16.4586 0.740692 20.9768C0.936475 21.7003 1.31838 22.3599 1.84838 22.8899C2.37838 23.4199 3.03798 23.8019 3.76149 23.9977C6.41029 24.7201 17.0711 24.7201 17.0711 24.7201C17.0711 24.7201 27.7318 24.7201 30.3804 23.9977C31.104 23.8019 31.7636 23.42 32.2936 22.89C32.8236 22.3599 33.2056 21.7003 33.4014 20.9768C34.2464 16.2637 34.5068 9.09663 33.3795 4.55876Z" fill="#FF0000"/>
<path id="Vector_2" d="M13.6562 17.8903L22.5 12.7679L13.6562 7.64551V17.8903Z" fill="white"/>
</g>
<defs>
<clipPath id="clip0_388_3020">
<rect width="34.1333" height="24" fill="white" transform="translate(0 0.81543)"/>
</clipPath>
</defs>
</svg>
