<svg width="34" height="40" viewBox="0 0 34 40" fill="none" xmlns="http://www.w3.org/2000/svg">
<g id="logos:tiktok-icon" clip-path="url(#clip0_388_3014)">
<path id="Vector" d="M25.1974 14.6681C27.6781 16.4404 30.7171 17.4833 33.9993 17.4833V11.1707C33.3781 11.1708 32.7585 11.106 32.1508 10.9773V15.9463C28.8689 15.9463 25.8302 14.9035 23.349 13.1313V26.0136C23.349 32.458 18.1221 37.6818 11.6748 37.6818C9.2692 37.6818 7.03316 36.9549 5.17578 35.7082C7.29573 37.8748 10.2521 39.2187 13.5228 39.2187C19.9706 39.2187 25.1977 33.9949 25.1977 27.5502V14.6681H25.1974ZM27.4778 8.29944C26.21 6.91514 25.3775 5.12615 25.1974 3.14831V2.33643H23.4457C23.8867 4.85017 25.3908 6.99775 27.4778 8.29944ZM9.25366 30.7631C8.54535 29.8349 8.16248 28.6993 8.1642 27.5318C8.1642 24.5844 10.555 22.1946 13.5046 22.1946C14.0542 22.1943 14.6006 22.2786 15.1245 22.4446V15.9909C14.5122 15.9071 13.8944 15.8713 13.2768 15.8845V20.9077C12.7526 20.7416 12.206 20.6573 11.6561 20.6578C8.7066 20.6578 6.31598 23.0473 6.31598 25.9951C6.31598 28.0795 7.51089 29.884 9.25366 30.7631Z" fill="#FF004F"/>
<path id="Vector_2" d="M23.3481 13.1312C25.8295 14.9034 28.8678 15.9461 32.1499 15.9461V10.9772C30.3179 10.5871 28.6961 9.63036 27.4768 8.29944C25.3896 6.99761 23.8858 4.85004 23.4448 2.33643H18.8438V27.5499C18.8333 30.4894 16.4467 32.8694 13.5034 32.8694C11.7691 32.8694 10.2283 32.0431 9.25248 30.7629C7.50998 29.884 6.31494 28.0793 6.31494 25.9952C6.31494 23.0477 8.70556 20.6579 11.6551 20.6579C12.2202 20.6579 12.7648 20.7458 13.2758 20.9079V15.8846C6.94168 16.0154 1.84766 21.1882 1.84766 27.5501C1.84766 30.7259 3.11615 33.6049 5.17501 35.7085C7.03239 36.9549 9.26829 37.6821 11.6741 37.6821C18.1214 37.6821 23.3483 32.4579 23.3483 26.0136V13.1313L23.3481 13.1312Z" fill="black"/>
<path id="Vector_3" d="M32.1506 10.9772V9.63396C30.4985 9.63647 28.8791 9.17405 27.4774 8.29959C28.7182 9.65722 30.352 10.5934 32.1506 10.9775V10.9772ZM23.4454 2.33645C23.4034 2.09627 23.3711 1.85448 23.3487 1.61169V0.799805H16.9958V26.0136C16.9857 28.9527 14.599 31.3327 11.6556 31.3327C10.8212 31.334 9.99818 31.1389 9.25305 30.7634C10.2288 32.0433 11.7697 32.8694 13.504 32.8694C16.4471 32.8694 18.834 30.4896 18.8444 27.5502V2.33658H23.4454V2.33645ZM13.2767 15.8847V14.4544C12.7459 14.3818 12.2107 14.3455 11.6749 14.3458C5.22684 14.3458 0 19.5698 0 26.0136C0 30.0536 2.05421 33.6141 5.17584 35.7084C3.11698 33.6049 1.84848 30.7258 1.84848 27.5501C1.84848 21.1884 6.94238 16.0155 13.2767 15.8847Z" fill="#00F2EA"/>
</g>
<defs>
<clipPath id="clip0_388_3014">
<rect width="34" height="38.5156" fill="white" transform="translate(0 0.799805)"/>
</clipPath>
</defs>
</svg>
